{"title":"V 2009 S02E04 HDTV XviD-2HD","uid":6145046,"size":367250772,"categoryP":"video","categoryS":"tv_shows","magnet":"?xt=urn:btih:9aa97850596aef327f0a2ded0782298e6f85d59e&amp;dn=V+2009+S02E04+HDTV+XviD-2HD&amp;tr=udp%3A%2F%2Ftracker.openbittorrent.com%3A80&amp;tr=udp%3A%2F%2Fopen.demonii.com%3A1337&amp;tr=udp%3A%2F%2Ftracker.coppersurfer.tk%3A6969&amp;tr=udp%3A%2F%2Fexodus.desync.com%3A6969","seeders":0,"leechers":1,"uploader":"TheCloon","files":4,"time":1296643499,"description":"Plot:\nAfter the radical faction of the Fifth Column murders three Peace Ambassadors, Erica goes on a mission to hunt down their leader, Eli Cohn, a former Mossad agent. Meanwhile, as Jack and other priests around the globe begin to speak out against the Visitors, Anna heads to the Vatican in an effort to convince the leaders of organized religion that the Visitors truly are &quot;of peace&quot;. \n\nFormat                           : AVI\nFormat/Info                      : Audio Video Interleave\nFile size                        : 350 MiB\nDuration                         : 41mn 23s\nOverall bit rate                 : 1 183 Kbps\nWriting application              : MEncoder SVN-r32669-4.3.2\nWriting library                  : MPlayer\n\nVideo\nID                               : 0\nFormat                           : MPEG-4 Visual\nFormat profile                   : Advanced Simple@L5\nFormat settings, BVOP            : 1\nFormat settings, QPel            : No\nFormat settings, GMC             : No warppoints\nFormat settings, Matrix          : Default (H.263)\nCodec ID                         : XVID\nCodec ID/Hint                    : XviD\nDuration                         : 41mn 23s\nBit rate                         : 1 042 Kbps\nWidth                            : 624 pixels\nHeight                           : 352 pixels\nDisplay aspect ratio             : 16:9\nFrame rate                       : 23.976 fps\nColor space                      : YUV\nChroma subsampling               : 4:2:0\nBit depth                        : 8 bits\nScan type                        : Progressive\nCompression mode                 : Lossy\nBits/(Pixel*Frame)               : 0.198\nStream size                      : 309 MiB (88%)\nWriting library                  : XviD 1.2.1 (UTC 2008-12-04)\n\nAudio\nID                               : 1\nFormat                           : MPEG Audio\nFormat version                   : Version 1\nFormat profile                   : Layer 3\nMode                             : Joint stereo\nMode extension                   : MS Stereo\nCodec ID                         : 55\nCodec ID/Hint                    : MP3\nDuration                         : 41mn 23s\nBit rate mode                    : Variable\nBit rate                         : 128 Kbps\nChannel(s)                       : 2 channels\nSampling rate                    : 48.0 KHz\nCompression mode                 : Lossy\nStream size                      : 37.9 MiB (11%)\nAlignment                        : Aligned on interleaves\nInterleave, duration             : 24 ms (0.58 video frame)\nInterleave, preload duration     : 531 ms","torrent":{"xt":"urn:btih:9aa97850596aef327f0a2ded0782298e6f85d59e","amp;dn":"V+2009+S02E04+HDTV+XviD-2HD","amp;tr":["udp%3A%2F%2Ftracker.openbittorrent.com%3A80","udp%3A%2F%2Fopen.demonii.com%3A1337","udp%3A%2F%2Ftracker.coppersurfer.tk%3A6969","udp%3A%2F%2Fexodus.desync.com%3A6969"],"infoHash":"9aa97850596aef327f0a2ded0782298e6f85d59e","infoHashBuffer":{"type":"Buffer","data":[154,169,120,80,89,106,239,50,127,10,45,237,7,130,41,142,111,133,213,158]},"announce":[],"urlList":[]}}